<?xml version="1.0" encoding="utf-8"?>
<!-- Generator: Adobe Illustrator 23.0.1, SVG Export Plug-In . SVG Version: 6.00 Build 0)  -->
<svg version="1.1" id="Layer_1" xmlns="http://www.w3.org/2000/svg" xmlns:xlink="http://www.w3.org/1999/xlink" x="0px" y="0px"
	 viewBox="0 0 1000 1000" enable-background="new 0 0 1000 1000" xml:space="preserve">
<g>
	<path fill-rule="evenodd" clip-rule="evenodd" fill="#D0D2D3" d="M610.4,577.9c-53.1,39.3-130.3,60.2-196.9,60.2
		c-93.3,0-177-34.4-240.7-91.7c-4.8-4.5-0.6-10.6,5.5-7.1c68.6,39.9,153.2,63.7,240.7,63.7c58.9,0,123.9-12.2,183.8-37.7
		C611.7,561.8,619.1,571.4,610.4,577.9L610.4,577.9z"/>
	<path fill-rule="evenodd" clip-rule="evenodd" fill="#D0D2D3" d="M632.6,552.5c-6.8-8.7-45.1-4.2-62.1-1.9
		c-5.2,0.6-6.1-3.9-1.3-7.1c30.6-21.6,80.5-15.1,86.2-8c5.8,7.1-1.6,57.3-30.2,81.1c-4.5,3.5-8.7,1.6-6.8-3.2
		C624.9,597.2,639.4,561.5,632.6,552.5z"/>
	<path fill-rule="evenodd" clip-rule="evenodd" fill="#D0D2D3" d="M571.5,392.2v-20.9c0-3.2,2.3-5.2,5.2-5.2h93.3
		c2.9,0,5.5,2.3,5.5,5.2V389c0,2.9-2.6,6.8-7.1,13.2L620.1,471c18-0.3,37,2.3,53.1,11.3c3.5,1.9,4.5,5.2,4.8,8v22.2
		c0,3.2-3.2,6.8-6.8,4.8c-28.6-15.1-66.9-16.7-98.5,0.3c-3.2,1.6-6.8-1.6-6.8-4.8v-21.2c0-3.2,0-9,3.5-14.2l56-80.1h-48.6
		C574,397.3,571.5,395.1,571.5,392.2L571.5,392.2z M231.3,521.9H203c-2.6-0.3-4.8-2.3-5.2-4.8V371.6c0-2.9,2.6-5.2,5.5-5.2h26.4
		c2.9,0,4.8,2.3,5.2,4.8v19h0.6c6.8-18.3,20-27,37.3-27c17.7,0,29,8.7,36.7,27c6.8-18.3,22.5-27,39.3-27c11.9,0,24.8,4.8,32.8,16.1
		c9,12.2,7.1,29.9,7.1,45.7v92c0,2.9-2.6,5.2-5.5,5.2h-28c-2.9-0.3-5.2-2.6-5.2-5.2v-77.2c0-6.1,0.6-21.6-0.6-27.4
		c-2.3-9.7-8.4-12.5-16.7-12.5c-6.8,0-14.2,4.5-17.1,11.9c-2.9,7.4-2.6,19.6-2.6,28V517c0,2.9-2.6,5.2-5.5,5.2h-28.3
		c-2.9-0.3-5.2-2.6-5.2-5.2v-77.2c0-16.1,2.6-40.2-17.4-40.2c-20.3,0-19.6,23.2-19.6,40.2V517C236.8,519.6,234.5,521.9,231.3,521.9
		L231.3,521.9z M755.9,363.2c42.2,0,65,36,65,82.1c0,44.4-25.1,79.8-65,79.8c-41.2,0-63.7-36-63.7-81.1
		C691.8,398.6,714.7,363.2,755.9,363.2L755.9,363.2z M755.9,393.2c-20.9,0-22.2,28.6-22.2,46.3c0,17.7-0.3,55.7,21.9,55.7
		c21.9,0,23.2-30.6,23.2-49.2c0-12.2-0.6-27-4.2-38.6C771.3,397,764.9,393.2,755.9,393.2L755.9,393.2z M875.2,521.9h-28.3
		c-2.9-0.3-5.2-2.6-5.2-5.2V371c0.3-2.6,2.6-4.8,5.5-4.8h26.4c2.6,0,4.5,1.9,5.2,4.2v22.2h0.6c8-20,19-29.3,38.6-29.3
		c12.5,0,25.1,4.5,33.2,17.1c7.4,11.6,7.4,31.2,7.4,45.4v91.7c-0.3,2.6-2.6,4.5-5.5,4.5h-28.3c-2.6-0.3-4.8-2.3-5.2-4.5v-79.2
		c0-16.1,1.9-39.3-17.7-39.3c-6.8,0-13.2,4.5-16.4,11.6c-3.9,9-4.5,17.7-4.5,27.7v78.5C880.7,519.6,878.1,521.9,875.2,521.9
		L875.2,521.9z M497.1,452.4c0,10.9,0.3,20.3-5.2,30.2c-4.5,8-11.6,12.9-19.6,12.9c-10.9,0-17.4-8.4-17.4-20.6
		c0-24.1,21.6-28.6,42.2-28.6L497.1,452.4L497.1,452.4z M525.8,521.6c-1.9,1.6-4.5,1.9-6.8,0.6c-9.3-7.7-11.3-11.6-16.4-19
		c-15.5,15.8-26.7,20.6-46.7,20.6c-23.8,0-42.5-14.8-42.5-44.1c0-23.2,12.5-38.6,30.2-46.3c15.5-6.8,37-8,53.4-10v-3.5
		c0-6.8,0.6-14.8-3.5-20.6c-3.5-5.2-10-7.4-15.8-7.4c-10.9,0-20.6,5.5-22.9,17.1c-0.6,2.6-2.3,5.2-4.8,5.2l-27.4-2.9
		c-2.3-0.6-4.8-2.3-4.2-5.8c6.4-33.5,36.4-43.4,63.4-43.4c13.8,0,31.9,3.5,42.8,14.2c13.8,12.9,12.5,30.2,12.5,48.9v44.1
		c0,13.2,5.5,19,10.6,26.4c1.9,2.6,2.3,5.8,0,7.4C541.8,507.7,531.5,516.7,525.8,521.6L525.8,521.6z M125.4,452.4
		c0,10.9,0.3,20.3-5.2,30.2c-4.5,8-11.6,12.9-19.6,12.9c-10.9,0-17.4-8.4-17.4-20.6c0-24.1,21.6-28.6,42.2-28.6L125.4,452.4
		L125.4,452.4z M153.7,521.6c-1.9,1.6-4.5,1.9-6.8,0.6c-9.3-7.7-11.3-11.6-16.4-19c-15.5,15.8-26.7,20.6-46.7,20.6
		c-23.8,0-42.5-14.8-42.5-44.1c0-23.2,12.5-38.6,30.2-46.3c15.5-6.8,37-8,53.4-10v-3.5c0-6.8,0.6-14.8-3.5-20.6
		c-3.5-5.2-10-7.4-15.8-7.4c-10.9,0-20.6,5.5-22.9,17.1c-0.6,2.6-2.3,5.2-4.8,5.2l-27.4-2.9c-2.3-0.6-4.8-2.3-4.2-5.8
		c6.4-33.5,36.4-43.4,63.4-43.4c13.8,0,31.9,3.5,42.8,14.2c13.8,12.9,12.5,30.2,12.5,48.9v44.1c0,13.2,5.5,19,10.6,26.4
		c1.9,2.6,2.3,5.8,0,7.4C169.8,507.7,159.5,516.7,153.7,521.6L153.7,521.6z"/>
</g>
</svg>
